# xmcd
#
# Track frame offsets: 
#        150
#        14350
#        32645
#        44745
#        57667
#        73517
#        87192
#        102900
#        121037
#        134335
#        149942
#        165570
#        179997
#
# Disc length: 2628 seconds
#
# Revision: 3
# Processed by: cddbd v1.5.2PL0 Copyright (c) Steve Scherf et al.
# Submitted via: ExactAudioCopy v0.90b4
#
DISCID=c50a420d
DTITLE=INXS - Full Moon, Dirty Hearts
DYEAR=1993
DGENRE=Rock
TTITLE0=Days Of Rust
TTITLE1=The Gift
TTITLE2=Make Your Peace
TTITLE3=Time
TTITLE4=I'm Only Looking
TTITLE5=Please, (You Got That)
TTITLE6=Full Moon Dirty Hearts
TTITLE7=Freedom Deep
TTITLE8=Kill The Pain
TTITLE9=Cut Your Roses Down
TTITLE10=The Messenger
TTITLE11=Viking Juice
TTITLE12=Born To Be Wild [Bonus Track]
EXTD=
EXTT0=
EXTT1=
EXTT2=
EXTT3=
EXTT4=
EXTT5=
EXTT6=
EXTT7=
EXTT8=
EXTT9=
EXTT10=
EXTT11=
EXTT12=
PLAYORDER=
